# xmcd
#
# Track frame offsets:
#  150
#  12106
#  27128
#  39033
#  49549
#  60539
#  71515
#  85481
#  98747
#  113490
#  129550
#
# Disc length: 1973 seconds
#
# Revision: 0
# Processed by: cddbd v1.5.1PL2 Copyright (c) Steve Scherf et al.
# Submitted via: Collectorz.com_Music_Collector 6.9
#
DISCID=7b07b30b
DTITLE=Kenny Rogers - Me and Bobby Mcgee
DYEAR=2004
DGENRE=Country
TTITLE0=Me And Bobby Mcgee
TTITLE1=Heed The Call
TTITLE2=Poem For My Little Lady
TTITLE3=Ticket To Nowhere
TTITLE4=Always Leaving Always Gone
TTITLE5=She Even Woke Me Up To Say Goo
TTITLE6=But You Know I Love You
TTITLE7=Sleep Comes Easy
TTITLE8=Church Without A Name
TTITLE9=The Way It Used To Be
TTITLE10=I Believe In Music
EXTD=
EXTT0=
EXTT1=
EXTT2=
EXTT3=
EXTT4=
EXTT5=
EXTT6=
EXTT7=
EXTT8=
EXTT9=
EXTT10=
PLAYORDER=
